<svg xmlns="http://www.w3.org/2000/svg" viewBox="0 0 64 64" role="img" aria-label="Muslim Ruhr Icon">
  <defs>
    <linearGradient id="g" x1="0" y1="0" x2="1" y2="1">
      <stop offset="0" stop-color="#0f7a50" />
      <stop offset="1" stop-color="#7ec9a9" />
    </linearGradient>
  </defs>
  <rect width="64" height="64" rx="14" fill="url(#g)" />
  <path d="M33 14c-7.7 0-14 6.3-14 14 0 6.4 4.3 11.8 10.2 13.5A13 13 0 0 1 24 31c0-7.2 5.8-13 13-13 .9 0 1.8.1 2.7.3A13.9 13.9 0 0 0 33 14z" fill="#fff"/>
  <path d="m43 20 1.9 3.8 4.1.6-3 2.9.7 4.1-3.7-2-3.7 2 .7-4.1-3-2.9 4.1-.6z" fill="#fff"/>
  <path d="M19 49h26v3H19zM23 49V38h6v11zm9 0V33h8v16z" fill="#fff" opacity=".85"/>
</svg>
