<svg xmlns="http://www.w3.org/2000/svg" width="1200" height="630" viewBox="0 0 1200 630" role="img" aria-label="Muslim Ruhr OG Image">
  <defs>
    <linearGradient id="bg" x1="0" y1="0" x2="1" y2="1">
      <stop offset="0" stop-color="#f2fbf6" />
      <stop offset="1" stop-color="#d9efe4" />
    </linearGradient>
    <linearGradient id="shape" x1="0" y1="0" x2="1" y2="1">
      <stop offset="0" stop-color="#0f7a50" />
      <stop offset="1" stop-color="#78c8a8" />
    </linearGradient>
  </defs>
  <rect width="1200" height="630" fill="url(#bg)" />
  <circle cx="1050" cy="120" r="180" fill="#b6e4cf" opacity="0.38" />
  <circle cx="160" cy="560" r="240" fill="#93c3ef" opacity="0.2" />

  <text x="90" y="210" fill="#102219" font-family="system-ui, -apple-system, Segoe UI, sans-serif" font-size="76" font-weight="700">
    Muslim Ruhr
  </text>
  <text x="90" y="286" fill="#2f4e3f" font-family="system-ui, -apple-system, Segoe UI, sans-serif" font-size="42">
    Komunitas Muslim Indonesia di Ruhrgebiet
  </text>
  <text x="90" y="356" fill="#3f6453" font-family="system-ui, -apple-system, Segoe UI, sans-serif" font-size="31">
    Kajian, Ramadhan, Eid, dan dukungan sosial diaspora
  </text>

  <g transform="translate(90 410)">
    <rect width="330" height="78" rx="39" fill="url(#shape)"/>
    <text x="42" y="50" fill="#fff" font-family="system-ui, -apple-system, Segoe UI, sans-serif" font-size="33" font-weight="600">
      @muslim_ruhr
    </text>
  </g>

  <path d="M0 610h1200v20H0zM180 610v-72h86v72zm126 0v-102h92v102zm140 0v-84h96v84zm152 0v-128h118v128zm170 0v-94h92v94zm138 0v-76h88v76zM636 482h42v-24h-42zM648 458h18V408h-18zM550 482h212c-18-30-44-52-106-72-62 20-88 42-106 72z" fill="#0f7a50" opacity="0.28"/>
</svg>
